<?xml version="1.0" encoding="UTF-8" standalone="no"?>
<svg
   version="1.1"
   width="600"
   height="375"
   id="NATO Map Symbol"
   sodipodi:docname="amphibian_infantry.svg"
   xml:space="preserve"
   inkscape:version="1.4 (e7c3feb100, 2024-10-09)"
   inkscape:export-filename="../amphibian_infantry.jpg"
   inkscape:export-xdpi="8"
   inkscape:export-ydpi="8"
   xmlns:inkscape="http://www.inkscape.org/namespaces/inkscape"
   xmlns:sodipodi="http://sodipodi.sourceforge.net/DTD/sodipodi-0.dtd"
   xmlns="http://www.w3.org/2000/svg"
   xmlns:svg="http://www.w3.org/2000/svg"><defs
     id="defs1" /><sodipodi:namedview
     id="namedview1"
     pagecolor="#ffffff"
     bordercolor="#000000"
     borderopacity="0.25"
     inkscape:showpageshadow="2"
     inkscape:pageopacity="0.0"
     inkscape:pagecheckerboard="0"
     inkscape:deskcolor="#d1d1d1"
     inkscape:zoom="0.5575"
     inkscape:cx="207.17489"
     inkscape:cy="100.44843"
     inkscape:window-width="1366"
     inkscape:window-height="699"
     inkscape:window-x="0"
     inkscape:window-y="0"
     inkscape:window-maximized="1"
     inkscape:current-layer="g1" /><g
     id="g1"
     style="fill:#ffffff;fill-opacity:1"><path
       id="Friendly Frame"
       d="M 5,5 H 595 V 370 H 5 Z"
       style="fill:#bfbfbf;stroke:#000000;stroke-width:10;stroke-linecap:round;stroke-linejoin:miter;stroke-miterlimit:4;stroke-opacity:1;fill-opacity:1" /><g
       id="Infantry"
       style="fill:#ffffff;fill-opacity:1;stroke:#000000;stroke-width:10;stroke-linecap:butt"><path
         d="M 595,370 5,5"
         id="path1"
         style="fill:#ffffff;fill-opacity:1" /><path
         d="M 595,5 5,370"
         id="path2"
         style="fill:#ffffff;fill-opacity:1" /></g></g><path
     d="m 4.7397284,218.5427 c 35.9343216,0 37.8712156,-62.0854 73.8055346,-62.0854 35.934317,0 37.880207,61.44969 73.805507,62.0854 v 0 c 35.93432,0 37.87119,-62.0854 73.80552,-62.0854 35.93431,0 37.87119,62.0854 73.80551,62.0854 35.93431,0 37.8712,-62.0854 73.80551,-62.0854 35.93432,0 37.8712,62.0854 73.8055,62.0854 35.93433,0 37.87123,-62.0854 73.80555,-62.0854 35.93431,0 37.88019,61.44969 73.8055,62.0854"
     style="fill:none;stroke:#000000;stroke-width:10;stroke-linecap:butt;stroke-linejoin:miter;stroke-miterlimit:4;stroke-dasharray:none;stroke-opacity:1"
     id="Wave" /></svg>
