<?xml version="1.0" encoding="UTF-8" standalone="no"?>
<svg
   id="NATO Map Symbol"
   height="375"
   width="600"
   version="1.1"
   sodipodi:docname="naval_unit.svg"
   inkscape:version="1.4 (e7c3feb100, 2024-10-09)"
   inkscape:export-filename="../naval_unit.jpg"
   inkscape:export-xdpi="8"
   inkscape:export-ydpi="8"
   xmlns:inkscape="http://www.inkscape.org/namespaces/inkscape"
   xmlns:sodipodi="http://sodipodi.sourceforge.net/DTD/sodipodi-0.dtd"
   xmlns="http://www.w3.org/2000/svg"
   xmlns:svg="http://www.w3.org/2000/svg">
  <defs
     id="defs2" />
  <sodipodi:namedview
     id="namedview2"
     pagecolor="#ffffff"
     bordercolor="#000000"
     borderopacity="0.25"
     inkscape:showpageshadow="2"
     inkscape:pageopacity="0.0"
     inkscape:pagecheckerboard="0"
     inkscape:deskcolor="#d1d1d1"
     inkscape:zoom="0.61"
     inkscape:cx="299.18033"
     inkscape:cy="208.19672"
     inkscape:window-width="1366"
     inkscape:window-height="699"
     inkscape:window-x="0"
     inkscape:window-y="0"
     inkscape:window-maximized="1"
     inkscape:current-layer="NATO Map Symbol" />
  <path
     id="Friendly Frame"
     d="M 5,5 H 595 V 370 H 5 Z"
     style="fill:#bfbfbf;stroke:#000000;stroke-width:10;stroke-linejoin:miter;stroke-miterlimit:4;stroke-opacity:1;fill-opacity:1" />
  <g
     id="Navy"
     style="fill:#000000;stroke:none">
    <path
       d="m 296.69211,87.244754 c -10.2054,10e-7 -18.47694,7.964348 -18.47387,17.777236 -0.003,9.81288 8.26847,17.77723 18.47387,17.77723 10.2054,0 18.47695,-7.96435 18.47388,-17.77723 0.003,-9.812888 -8.26848,-17.777236 -18.47388,-17.777236 z m -0.41282,8.643502 c 4.95408,0 8.98041,3.854167 8.97892,8.617704 0.002,4.76354 -4.02484,8.6177 -8.97892,8.6177 -4.95408,0 -8.98041,-3.85416 -8.97892,-8.6177 -0.002,-4.763538 4.02484,-8.617703 8.97892,-8.617704 z"
       id="path1" />
    <path
       d="m 289.78212,119.28335 c -0.86956,-0.0154 0,1.71312 0,7.50038 v 7.50038 l -18.06582,-0.25235 c -14.20335,-0.19838 -18.35164,-0.0151 -19.40272,0.85721 -1.6808,1.39493 -1.94512,10.79778 -0.30486,10.84454 l 36.94775,-0.0862 c 0.0414,8.82564 0.1562,17.65198 0.0436,26.47752 -0.4165,18.23035 -0.7362,36.46219 -0.90573,54.69656 -0.0749,9.87537 -0.45053,19.34968 -0.83473,21.05402 -1.44807,6.42381 -5.49955,7.29635 -17.98642,3.87365 -12.98599,-3.55951 -29.11549,-11.47267 -31.83031,-15.61601 -2.15825,-3.29391 -2.4951,-6.11817 -0.93528,-7.84175 0.77764,-0.85929 1.93391,-1.3628 2.56948,-1.1189 0.70274,0.26966 1.44171,-0.31837 1.88576,-1.50057 1.56309,-4.16146 -3.65406,-10.31207 -13.92992,-16.42226 -2.49758,-1.48511 -6.58454,-4.67445 -9.08212,-7.08745 -2.62058,-2.53181 -4.93175,-4.13698 -5.46484,-3.79549 -1.6588,1.0626 -5.05278,8.73821 -6.09562,13.78544 -2.09641,10.14637 0.56325,25.11768 5.50563,30.99136 2.60898,3.1006 4.0644,3.12764 4.67257,0.0868 1.0716,-5.35797 7.74052,-3.81245 15.00545,3.4775 5.74973,5.76954 16.69839,14.1333 21.46684,16.39868 1.81643,0.86294 4.41722,2.26597 5.77954,3.11782 1.36232,0.85186 5.44928,2.56545 9.08213,3.80798 7.61076,2.60308 16.52325,7.21184 20.05227,10.36927 1.34066,1.1995 3.36541,2.78887 4.49946,3.53192 1.98376,1.29981 2.11499,1.26996 3.46326,-0.78775 2.80683,-4.28377 7.64819,-8.03221 14.98213,-11.59994 4.12185,-2.00515 8.11359,-3.64573 8.87054,-3.64573 1.60895,0 15.1869,-6.007 23.3664,-10.33749 6.40966,-3.39349 9.29702,-5.43896 16.45776,-11.65912 8.08421,-7.02233 12.17454,-7.81551 16.41724,-3.18357 l 2.64883,2.89186 1.70059,-1.8598 c 3.07689,-3.36492 4.2093,-6.74806 4.80422,-14.35288 0.45492,-5.81521 0.26202,-8.97235 -0.85653,-14.01914 -1.76748,-7.9747 -4.73106,-14.79015 -6.9469,-15.97603 -1.39906,-0.74876 -1.87529,-0.53192 -3.07092,1.39832 -2.07889,3.35617 -4.98379,5.99559 -10.57822,9.61144 -6.69866,4.32956 -10.74097,8.79291 -11.98387,13.2321 -1.20059,4.28808 -0.65402,5.84467 1.62413,4.62544 2.48519,-1.33003 4.1043,-0.96728 5.06173,1.13408 1.348,2.95852 -0.67701,5.33838 -8.50396,9.99419 -13.36794,7.95183 -31.29212,14.46459 -39.80888,14.46459 -4.01889,0 -7.79292,-1.55458 -8.39736,-3.45901 -0.29147,-0.91832 -0.30643,-11.75486 -0.0333,-24.08119 0.27317,-12.32633 0.7151,-35.22547 0.98208,-50.88698 0.26698,-15.66152 0.61054,-28.67795 0.76347,-28.92542 0.15294,-0.24745 8.66702,-0.37176 18.92017,-0.27625 21.27253,0.19817 20.15349,0.59791 19.97736,-7.13622 l -0.10342,-4.54106 c -12.70396,-0.89072 -25.70893,0.77763 -38.35952,-0.93014 -0.23877,-0.23878 -0.48848,-3.1814 -0.5549,-6.53916 l -0.12076,-7.56843 -13.39346,-0.23676 z"
       id="path2" />
  </g>
</svg>
